{
    "asset" : {
        "generator" : "Khronos glTF Blender I/O v3.2.43",
        "version" : "2.0"
    },
    "scene" : 0,
    "scenes" : [
        {
            "name" : "Scene",
            "nodes" : [
                0
            ]
        }
    ],
    "nodes" : [
        {
            "mesh" : 0,
            "name" : "ConeGreen",
            "rotation" : [
                0,
                0.3826834559440613,
                0,
                0.9238795638084412
            ]
        }
    ],
    "animations" : [
        {
            "channels" : [
                {
                    "sampler" : 0,
                    "target" : {
                        "node" : 0,
                        "path" : "rotation"
                    }
                }
            ],
            "name" : "ConeAction",
            "samplers" : [
                {
                    "input" : 12,
                    "interpolation" : "LINEAR",
                    "output" : 13
                }
            ]
        }
    ],
    "materials" : [
        {
            "doubleSided" : true,
            "name" : "Material",
            "pbrMetallicRoughness" : {
                "baseColorFactor" : [
                    0.031062917783856392,
                    0.031062917783856392,
                    0.031062917783856392,
                    1
                ],
                "metallicFactor" : 0,
                "roughnessFactor" : 0.5
            }
        },
        {
            "doubleSided" : true,
            "name" : "Material.002",
            "pbrMetallicRoughness" : {
                "baseColorFactor" : [
                    0.36723849177360535,
                    0.36723849177360535,
                    0.36723849177360535,
                    1
                ],
                "metallicFactor" : 0,
                "roughnessFactor" : 0.5
            }
        },
        {
            "doubleSided" : true,
            "emissiveFactor" : [
                0.0979257095605135,
                1,
                0.01230429857969284
            ],
            "name" : "Material.004",
            "pbrMetallicRoughness" : {
                "baseColorFactor" : [
                    0.013608287088572979,
                    0.8000000715255737,
                    0.001864246092736721,
                    1
                ],
                "metallicFactor" : 0,
                "roughnessFactor" : 0.5
            }
        }
    ],
    "meshes" : [
        {
            "name" : "ConeGreen",
            "primitives" : [
                {
                    "attributes" : {
                        "POSITION" : 0,
                        "NORMAL" : 1,
                        "TEXCOORD_0" : 2
                    },
                    "indices" : 3,
                    "material" : 0
                },
                {
                    "attributes" : {
                        "POSITION" : 4,
                        "NORMAL" : 5,
                        "TEXCOORD_0" : 6
                    },
                    "indices" : 7,
                    "material" : 1
                },
                {
                    "attributes" : {
                        "POSITION" : 8,
                        "NORMAL" : 9,
                        "TEXCOORD_0" : 10
                    },
                    "indices" : 11,
                    "material" : 2
                }
            ]
        }
    ],
    "accessors" : [
        {
            "bufferView" : 0,
            "componentType" : 5126,
            "count" : 3453,
            "max" : [
                0.10746430605649948,
                0.08472007513046265,
                0.10646780580282211
            ],
            "min" : [
                -0.13172364234924316,
                -0.06272870302200317,
                -0.13162747025489807
            ],
            "type" : "VEC3"
        },
        {
            "bufferView" : 1,
            "componentType" : 5126,
            "count" : 3453,
            "type" : "VEC3"
        },
        {
            "bufferView" : 2,
            "componentType" : 5126,
            "count" : 3453,
            "type" : "VEC2"
        },
        {
            "bufferView" : 3,
            "componentType" : 5123,
            "count" : 5385,
            "type" : "SCALAR"
        },
        {
            "bufferView" : 4,
            "componentType" : 5126,
            "count" : 1058,
            "max" : [
                0.09397279471158981,
                0.0664534866809845,
                0.10527106374502182
            ],
            "min" : [
                -0.11879158765077591,
                -0.0733751654624939,
                -0.10428187996149063
            ],
            "type" : "VEC3"
        },
        {
            "bufferView" : 5,
            "componentType" : 5126,
            "count" : 1058,
            "type" : "VEC3"
        },
        {
            "bufferView" : 6,
            "componentType" : 5126,
            "count" : 1058,
            "type" : "VEC2"
        },
        {
            "bufferView" : 7,
            "componentType" : 5123,
            "count" : 1302,
            "type" : "SCALAR"
        },
        {
            "bufferView" : 8,
            "componentType" : 5126,
            "count" : 1104,
            "max" : [
                0.16107535362243652,
                0.14524739980697632,
                0.10646780580282211
            ],
            "min" : [
                -0.18533480167388916,
                -0.06272870302200317,
                -0.1927911341190338
            ],
            "type" : "VEC3"
        },
        {
            "bufferView" : 9,
            "componentType" : 5126,
            "count" : 1104,
            "type" : "VEC3"
        },
        {
            "bufferView" : 10,
            "componentType" : 5126,
            "count" : 1104,
            "type" : "VEC2"
        },
        {
            "bufferView" : 11,
            "componentType" : 5123,
            "count" : 1422,
            "type" : "SCALAR"
        },
        {
            "bufferView" : 12,
            "componentType" : 5126,
            "count" : 101,
            "max" : [
                4.208333333333333
            ],
            "min" : [
                0.041666666666666664
            ],
            "type" : "SCALAR"
        },
        {
            "bufferView" : 13,
            "componentType" : 5126,
            "count" : 101,
            "type" : "VEC4"
        }
    ],
    "bufferViews" : [
        {
            "buffer" : 0,
            "byteLength" : 41436,
            "byteOffset" : 0
        },
        {
            "buffer" : 0,
            "byteLength" : 41436,
            "byteOffset" : 41436
        },
        {
            "buffer" : 0,
            "byteLength" : 27624,
            "byteOffset" : 82872
        },
        {
            "buffer" : 0,
            "byteLength" : 10770,
            "byteOffset" : 110496
        },
        {
            "buffer" : 0,
            "byteLength" : 12696,
            "byteOffset" : 121268
        },
        {
            "buffer" : 0,
            "byteLength" : 12696,
            "byteOffset" : 133964
        },
        {
            "buffer" : 0,
            "byteLength" : 8464,
            "byteOffset" : 146660
        },
        {
            "buffer" : 0,
            "byteLength" : 2604,
            "byteOffset" : 155124
        },
        {
            "buffer" : 0,
            "byteLength" : 13248,
            "byteOffset" : 157728
        },
        {
            "buffer" : 0,
            "byteLength" : 13248,
            "byteOffset" : 170976
        },
        {
            "buffer" : 0,
            "byteLength" : 8832,
            "byteOffset" : 184224
        },
        {
            "buffer" : 0,
            "byteLength" : 2844,
            "byteOffset" : 193056
        },
        {
            "buffer" : 0,
            "byteLength" : 404,
            "byteOffset" : 195900
        },
        {
            "buffer" : 0,
            "byteLength" : 1616,
            "byteOffset" : 196304
        }
    ],
    "buffers" : [
        {
            "byteLength" : 197920,
            "uri" : "data:application/octet-stream;base64,"
        }
    ]
}
