{
    "asset" : {
        "generator" : "Khronos glTF Blender I/O v3.2.43",
        "version" : "2.0"
    },
    "scene" : 0,
    "scenes" : [
        {
            "name" : "Scene",
            "nodes" : [
                0
            ]
        }
    ],
    "nodes" : [
        {
            "mesh" : 0,
            "name" : "ConeRed",
            "rotation" : [
                0,
                0.3826834559440613,
                0,
                0.9238795638084412
            ],
            "scale" : [
                0.050000011920928955,
                0.050000011920928955,
                0.050000011920928955
            ]
        }
    ],
    "materials" : [
        {
            "doubleSided" : true,
            "name" : "Material",
            "pbrMetallicRoughness" : {
                "baseColorFactor" : [
                    0.031062917783856392,
                    0.031062917783856392,
                    0.031062917783856392,
                    1
                ],
                "metallicFactor" : 0,
                "roughnessFactor" : 0.5
            }
        },
        {
            "doubleSided" : true,
            "name" : "Material.002",
            "pbrMetallicRoughness" : {
                "baseColorFactor" : [
                    0.36723849177360535,
                    0.36723849177360535,
                    0.36723849177360535,
                    1
                ],
                "metallicFactor" : 0,
                "roughnessFactor" : 0.5
            }
        },
        {
            "doubleSided" : true,
            "emissiveFactor" : [
                1,
                0.020127412863075733,
                0.062290290370583534
            ],
            "name" : "Material.005",
            "pbrMetallicRoughness" : {
                "baseColorFactor" : [
                    0.8000000715255737,
                    0.0007081880467012525,
                    0.006999513134360313,
                    1
                ],
                "metallicFactor" : 0,
                "roughnessFactor" : 0.5
            }
        }
    ],
    "meshes" : [
        {
            "name" : "ConeRed",
            "primitives" : [
                {
                    "attributes" : {
                        "POSITION" : 0,
                        "NORMAL" : 1,
                        "TEXCOORD_0" : 2
                    },
                    "indices" : 3,
                    "material" : 0
                },
                {
                    "attributes" : {
                        "POSITION" : 4,
                        "NORMAL" : 5,
                        "TEXCOORD_0" : 6
                    },
                    "indices" : 7,
                    "material" : 1
                },
                {
                    "attributes" : {
                        "POSITION" : 8,
                        "NORMAL" : 9,
                        "TEXCOORD_0" : 10
                    },
                    "indices" : 11,
                    "material" : 2
                }
            ]
        }
    ],
    "accessors" : [
        {
            "bufferView" : 0,
            "componentType" : 5126,
            "count" : 3510,
            "max" : [
                2.270580768585205,
                1.2281521558761597,
                2.06467866897583
            ],
            "min" : [
                -2.513178825378418,
                -1.7208232879638672,
                -2.6972262859344482
            ],
            "type" : "VEC3"
        },
        {
            "bufferView" : 1,
            "componentType" : 5126,
            "count" : 3510,
            "type" : "VEC3"
        },
        {
            "bufferView" : 2,
            "componentType" : 5126,
            "count" : 3510,
            "type" : "VEC2"
        },
        {
            "bufferView" : 3,
            "componentType" : 5123,
            "count" : 5385,
            "type" : "SCALAR"
        },
        {
            "bufferView" : 4,
            "componentType" : 5126,
            "count" : 1105,
            "max" : [
                2.048593759536743,
                0.8628196716308594,
                2.0407447814941406
            ],
            "min" : [
                -2.2545359134674072,
                -1.9337527751922607,
                -2.1503143310546875
            ],
            "type" : "VEC3"
        },
        {
            "bufferView" : 5,
            "componentType" : 5126,
            "count" : 1105,
            "type" : "VEC3"
        },
        {
            "bufferView" : 6,
            "componentType" : 5126,
            "count" : 1105,
            "type" : "VEC2"
        },
        {
            "bufferView" : 7,
            "componentType" : 5123,
            "count" : 1302,
            "type" : "SCALAR"
        },
        {
            "bufferView" : 8,
            "componentType" : 5126,
            "count" : 1150,
            "max" : [
                3.3911728858947754,
                2.438697099685669,
                2.016308546066284
            ],
            "min" : [
                -3.5370304584503174,
                -1.7208232879638672,
                -3.96886944770813
            ],
            "type" : "VEC3"
        },
        {
            "bufferView" : 9,
            "componentType" : 5126,
            "count" : 1150,
            "type" : "VEC3"
        },
        {
            "bufferView" : 10,
            "componentType" : 5126,
            "count" : 1150,
            "type" : "VEC2"
        },
        {
            "bufferView" : 11,
            "componentType" : 5123,
            "count" : 1422,
            "type" : "SCALAR"
        }
    ],
    "bufferViews" : [
        {
            "buffer" : 0,
            "byteLength" : 42120,
            "byteOffset" : 0
        },
        {
            "buffer" : 0,
            "byteLength" : 42120,
            "byteOffset" : 42120
        },
        {
            "buffer" : 0,
            "byteLength" : 28080,
            "byteOffset" : 84240
        },
        {
            "buffer" : 0,
            "byteLength" : 10770,
            "byteOffset" : 112320
        },
        {
            "buffer" : 0,
            "byteLength" : 13260,
            "byteOffset" : 123092
        },
        {
            "buffer" : 0,
            "byteLength" : 13260,
            "byteOffset" : 136352
        },
        {
            "buffer" : 0,
            "byteLength" : 8840,
            "byteOffset" : 149612
        },
        {
            "buffer" : 0,
            "byteLength" : 2604,
            "byteOffset" : 158452
        },
        {
            "buffer" : 0,
            "byteLength" : 13800,
            "byteOffset" : 161056
        },
        {
            "buffer" : 0,
            "byteLength" : 13800,
            "byteOffset" : 174856
        },
        {
            "buffer" : 0,
            "byteLength" : 9200,
            "byteOffset" : 188656
        },
        {
            "buffer" : 0,
            "byteLength" : 2844,
            "byteOffset" : 197856
        }
    ],
    "buffers" : [
        {
            "byteLength" : 200700,
            "uri" : "data:application/octet-stream;base64,"
        }
    ]
}
